<?xml version="1.0" encoding="utf-8"?>
<!-- Generator: Adobe Illustrator 17.0.0, SVG Export Plug-In . SVG Version: 6.00 Build 0)  -->
<!DOCTYPE svg PUBLIC "-//W3C//DTD SVG 1.1//EN" "http://www.w3.org/Graphics/SVG/1.1/DTD/svg11.dtd">
<svg version="1.1" id="Layer_1" xmlns="http://www.w3.org/2000/svg" xmlns:xlink="http://www.w3.org/1999/xlink" x="0px" y="0px"
	 width="1716.246px" height="441px" viewBox="0 0 1716.246 441" enable-background="new 0 0 1716.246 441" xml:space="preserve">
<g>
	<g>
		<circle fill="#FEE050" cx="188.06" cy="251.641" r="164.006"/>
		<g>
			<path fill="#AF8400" d="M278.694,251.643c0,50.054-40.575,90.634-90.634,90.634c-50.053,0-90.634-40.58-90.634-90.634
				L278.694,251.643L278.694,251.643z"/>
		</g>
	</g>
	<g>
		<path fill="#C3C6C8" d="M456.007,25.352c-76.915,0-139.265,62.351-139.265,139.268c0,34.658,12.691,66.335,33.638,90.705
			c-6.294,18.126-17.914,33.76-33.032,44.979c9.593,3.278,19.875,5.084,30.575,5.084c18.322,0,35.415-5.225,49.902-14.245
			c17.709,8.158,37.405,12.741,58.183,12.741c76.92,0,139.271-62.349,139.271-139.263C595.278,87.703,532.927,25.352,456.007,25.352
			z"/>
	</g>
	<path fill="#071C2C" d="M103.231,217.559c0-10.648-8.631-19.282-19.284-19.282c-10.655,0-19.287,8.634-19.287,19.282
		c0,10.653,8.632,19.29,19.287,19.29C94.6,236.847,103.231,228.21,103.231,217.559z M278.694,239.615H97.424
		c-6.642,0-12.027,5.385-12.027,12.027c0,56.608,46.053,102.662,102.662,102.662s102.662-46.053,102.662-102.662
		C290.722,245,285.337,239.615,278.694,239.615z M188.06,330.251c-39.257,0-71.885-28.923-77.688-66.58H265.75
		C259.943,301.328,227.315,330.251,188.06,330.251z M292.178,198.274c-10.651,0-19.29,8.634-19.29,19.282
		c0,10.653,8.639,19.29,19.29,19.29c10.647,0,19.282-8.637,19.282-19.29C311.46,206.909,302.824,198.274,292.178,198.274z
		 M528.671,133.256H383.343c-6.642,0-12.027,5.385-12.027,12.027s5.385,12.027,12.027,12.027h145.328
		c6.642,0,12.027-5.385,12.027-12.027S535.315,133.256,528.671,133.256z M456.007,13.324c-69.612,0-128.384,47.262-145.939,111.384
		c-32.6-31.459-75.876-49.1-122.01-49.1c-97.063,0-176.031,78.97-176.031,176.035S90.995,427.676,188.06,427.676
		c72.178,0,136.652-43.967,163.326-110.317c16.559-0.536,32.703-4.902,47.214-12.76c18.246,7.51,37.527,11.314,57.409,11.314
		c83.426,0,151.298-67.869,151.298-151.29C607.305,81.195,539.433,13.324,456.007,13.324z M305.464,302.157
		c0.688,4.415,3.767,8.086,7.996,9.529c4.169,1.424,8.405,2.587,12.69,3.482c-24.577,53.473-78.266,88.453-138.089,88.453
		c-83.801-0.002-151.978-68.179-151.978-151.978S104.26,99.665,188.061,99.665c45.607,0,87.985,19.975,116.995,54.966
		c-0.216,3.303-0.338,6.633-0.338,9.989c0,33.684,11.282,66.386,31.906,92.876c-5.762,13.148-14.81,24.52-26.441,33.15
		C306.593,293.31,304.776,297.742,305.464,302.157z M456.007,291.857c-18.503,0-36.385-3.916-53.151-11.638
		c-3.676-1.693-7.954-1.424-11.389,0.714c-13.058,8.13-28.115,12.428-43.545,12.428c-1.836,0-3.669-0.061-5.494-0.183
		c8.422-9.947,14.968-21.399,19.313-33.907c1.405-4.048,0.552-8.536-2.24-11.785c-19.818-23.057-30.732-52.485-30.732-82.865
		c0-70.161,57.078-127.241,127.237-127.241c70.162,0,127.244,57.08,127.244,127.241
		C583.251,234.779,526.169,291.857,456.007,291.857z M498.834,208.635h-85.652c-6.642,0-12.027,5.385-12.027,12.027
		s5.385,12.027,12.027,12.027h85.652c6.642,0,12.027-5.385,12.027-12.027S505.476,208.635,498.834,208.635z M413.182,119.618h85.652
		c6.642,0,12.027-5.385,12.027-12.027s-5.385-12.027-12.027-12.027h-85.652c-6.642,0-12.027,5.385-12.027,12.027
		S406.54,119.618,413.182,119.618z M518.911,170.944H393.104c-6.642,0-12.027,5.385-12.027,12.027s5.385,12.027,12.027,12.027
		h125.807c6.642,0,12.027-5.385,12.027-12.027C530.939,176.329,525.554,170.944,518.911,170.944z"/>
</g>
<path fill="#071C2C" d="M642.006,124.552c0.744,0,1.386,0,2.026,0c21.746,0,43.49-0.012,65.236,0.029
	c1.352,0.003,1.996-0.307,2.35-1.719c2.499-9.972,5.094-19.92,7.66-29.876c0.108-0.42,0.23-0.837,0.39-1.413
	c11.305,1.06,22.606,2.119,34.04,3.191c-3.188,9.944-6.319,19.714-9.536,29.746c35.596,0,70.922,0,106.357,0
	c0,74.242,0,148.282,0,222.473c-9.803,0-19.633,0-29.673,0c0-5.515,0-11.094,0-16.818c-49.763,0-99.316,0-149.062,0
	c0,5.585,0,11.167,0,16.857c-10.02,0-19.851,0-29.786,0C642.006,272.886,642.006,198.798,642.006,124.552z M671.841,306.441
	c49.713,0,99.25,0,148.819,0c0-12.047,0-23.953,0-35.94c-49.655,0-99.199,0-148.819,0
	C671.841,282.52,671.841,294.434,671.841,306.441z M820.704,150.287c-49.718,0-99.254,0-148.8,0c0,12.062,0,24.002,0,35.887
	c49.68,0,99.221,0,148.8,0C820.704,174.181,820.704,162.318,820.704,150.287z M820.632,246.869c0-12.068,0-24.003,0-35.93
	c-49.683,0-99.227,0-148.769,0c0,12.021,0,23.93,0,35.93C721.458,246.869,770.959,246.869,820.632,246.869z"/>
<path fill="#071C2C" d="M1009.344,142.692c0,9.347,0,18.378,0,27.549c0.568,0.031,1.091,0.086,1.613,0.087
	c8.175,0.005,16.35,0.029,24.524-0.034c0.839-0.007,1.83-0.346,2.488-0.865c21.257-16.707,41.737-34.312,61.187-53.101
	c3.363-3.248,6.71-6.513,10.14-9.843c7.45,5.675,14.846,11.309,22.398,17.06c-17.506,16.142-35.421,31.568-54.142,46.752
	c22.868,0,45.285,0,67.817,0c0,7.873,0,15.586,0,23.524c-0.642,0-1.27,0-1.898,0c-32.427,0-64.853-0.01-97.28,0.044
	c-1.099,0.001-2.335,0.432-3.277,1.027c-8.787,5.56-17.522,11.2-26.273,16.816c-0.411,0.264-0.83,0.515-1.642,1.018
	c38.009,0,75.596,0,113.333,0c0,7.954,0,15.704,0,23.57c-47.807,0-95.584,0-143.54,0c-1.413,6.702-2.81,13.329-4.263,20.222
	c41.566,0,82.985,0,124.639,0c-1.823,16.493-3.66,32.715-5.386,48.95c-0.515,4.837-1.136,9.625-2.936,14.177
	c-3.867,9.783-11.179,15.707-21.077,18.684c-5.302,1.595-10.749,2.209-16.274,2.344c-9.253,0.225-18.503,0.639-27.756,0.763
	c-13.347,0.18-26.697,0.173-40.046,0.245c-0.486,0.003-0.973,0-1.581,0c-1.775-8.493-3.538-16.932-5.326-25.484
	c0.5-0.026,0.971-0.074,1.443-0.074c19.782-0.004,39.566-0.035,59.348,0.02c4.864,0.014,9.701,0.004,14.391-1.484
	c6.363-2.019,10.237-6.095,10.88-12.981c0.642-6.875,1.454-13.734,2.175-20.603c0.067-0.642,0.01-1.296,0.01-2.151
	c-41.52,0-82.958,0-124.535,0c2.117-10.617,4.191-21.009,6.27-31.436c-18.418,8.841-36.686,17.611-54.883,26.346
	c-4.032-9.17-7.901-17.967-11.658-26.51c18.837-8.142,37.878-16.125,56.707-24.58c18.868-8.472,37.183-18.068,54.975-28.85
	c-35.521,0-71.04,0-106.66,0c0-7.919,0-15.628,0-23.521c29.373,0,58.714,0,88.149,0c0-9.256,0-18.329,0-27.592
	c-22.604,0-45.184,0-67.87,0c0-7.897,0-15.606,0-23.479c22.601,0,45.186,0,67.91,0c0-8.915,0-17.665,0-26.553
	c9.307,0,18.477,0,27.779,0c0,8.757,0,17.507,0,26.436c19.549,0,38.968,0,58.495,0c0,7.89,0,15.602,0,23.506
	C1048.32,142.692,1028.903,142.692,1009.344,142.692z"/>
<path fill="#071C2C" d="M1394.461,180.181c0,22.111,0,43.953,0,65.981c9.922,0,19.754,0,29.692,0c0,8.27,0,16.356,0,24.585
	c-35.699,0-71.366,0-107.034,0c-0.119,0.134-0.236,0.266-0.354,0.399c2.154,2.895,4.162,5.916,6.49,8.664
	c8.987,10.617,20.552,17.517,33.284,22.642c12.847,5.172,26.241,8.318,39.926,10.144c9.486,1.266,19.033,2.083,28.695,3.116
	c-0.894,1.837-1.89,3.861-2.865,5.896c-3.409,7.112-6.826,14.222-10.197,21.353c-0.401,0.848-0.771,1.26-1.808,1.094
	c-24.358-3.917-48.307-9.309-70.83-19.765c-10.828-5.026-20.887-11.264-29.552-19.577c-4.423-4.244-8.275-8.956-11.456-14.206
	c-0.278-0.459-0.572-0.909-0.662-1.052c-3.118,3.917-6.054,8.044-9.438,11.764c-6.472,7.112-14.32,12.534-22.607,17.32
	c-15.643,9.036-32.421,15.379-49.664,20.519c-10.316,3.075-20.758,5.721-31.35,8.615c-4.139-10.175-10.602-18.694-16.219-27.937
	c5-0.767,9.618-1.428,14.219-2.191c19.859-3.29,39.398-7.773,57.869-16.046c10.869-4.868,20.992-10.925,28.997-19.932
	c2.833-3.187,5.178-6.807,7.746-10.23c-0.128-0.153-0.256-0.307-0.386-0.459c-35.315,0-70.63,0-106.061,0c0-8.258,0-16.345,0-24.623
	c9.813,0,19.639,0,29.644,0c0-22.066,0-43.942,0-66.017c27.768,0,55.359,0,83.094,0c0-7.859,0-15.52,0-23.295
	c9.649,0,19.154,0,28.809,0c0,7.757,0,15.421,0,23.235C1339.812,180.181,1367.032,180.181,1394.461,180.181z M1228.377,246.211
	c4.668,0,9.178,0,13.688,0c12.584,0,25.168-0.019,37.753,0.029c1.319,0.005,1.841-0.324,1.824-1.698
	c-0.021-1.737,0.207-3.476,0.257-5.216c0.233-8.052,0.473-16.105,0.645-24.159c0.08-3.743,0.014-7.49,0.014-11.301
	c-18.157,0-36.146,0-54.18,0C1228.377,217.974,1228.377,231.964,1228.377,246.211z M1365.628,203.872c-17.769,0-35.378,0-53.161,0
	c-0.439,14.12-0.875,28.129-1.312,42.209c18.47,0,36.454,0,54.473,0C1365.628,231.963,1365.628,217.974,1365.628,203.872z"/>
<path fill="#071C2C" d="M1511.599,206.762c13.488,0,26.824,0,40.333,0c2.112-10.897,4.209-21.718,6.348-32.751
	c-11.327,0-22.559,0-33.899,0c0-7.249,0-14.296,0-21.511c12.71,0,25.381,0,38.191,0c1.421-8.874,2.818-17.606,4.237-26.476
	c-15.965,0-31.756,0-47.688,0c0-7.863,0-15.616,0-23.476c56.655,0,113.303,0,170.091,0c0,7.746,0,15.495,0,23.423
	c-31.182,0-62.325,0-93.554,0c-1.77,8.845-3.509,17.536-5.289,26.433c27.313,0,54.517,0,81.939,0c0,18.187,0,36.183,0,54.309
	c8.915,0,17.613,0,26.446,0c0,7.881,0,15.631,0,23.484c-62.357,0-124.714,0-187.155,0
	C1511.599,222.414,1511.599,214.7,1511.599,206.762z M1579.73,206.653c21.687,0,43.167,0,64.73,0c0-10.907,0-21.713,0-32.615
	c-19.503,0-38.915,0-58.421,0C1583.938,184.911,1581.845,195.73,1579.73,206.653z"/>
<path fill="#071C2C" d="M1532.89,252.616c48.928,0,97.789,0,146.759,0c0,31.208,0,62.357,0,93.609c-9.539,0-19.044,0-28.735,0
	c0-4.499,0-8.991,0-13.583c-30.18,0-60.174,0-90.335,0c0,4.54,0,9.033,0,13.605c-9.301,0-18.435,0-27.688,0
	C1532.89,315.064,1532.89,283.882,1532.89,252.616z M1560.653,310.956c30.114,0,60.103,0,90.133,0c0-11.636,0-23.161,0-34.782
	c-30.073,0-60.06,0-90.133,0C1560.653,287.78,1560.653,299.305,1560.653,310.956z"/>
<path fill="#071C2C" d="M1424.153,118.41c0,8.367,0,16.425,0,24.683c-20.891,0-41.733,0-62.7,0c0,7.1,0,14.003,0,21.026
	c-9.25,0-18.374,0-27.708,0c0-6.909,0-13.845,0-20.901c-24.206,0-48.202,0-72.378,0c0,6.973,0,13.919,0,20.943
	c-9.64,0-19.1,0-28.745,0c0-6.96,0-13.903,0-21.013c-20.263,0-40.344,0-60.561,0c0-8.298,0-16.426,0-24.7
	c20.175,0,40.261,0,60.474,0c0-9.224,0-18.305,0-27.53c9.619,0,19.115,0,28.787,0c0,9.112,0,18.232,0,27.445
	c24.175,0,48.173,0,72.311,0c0-9.144,0-18.224,0-27.447c9.309,0,18.477,0,27.763,0c0,9.122,0,18.206,0,27.49
	C1382.341,118.41,1403.171,118.41,1424.153,118.41z"/>
<path fill="#071C2C" d="M1465.681,205.863c-8.277,0-16.32,0-24.415,0c0-8.941,0-17.699,0-26.572c17.353,0,34.65,0,52.152,0
	c0,36.672,0,73.354,0,110.037c0.168,0.128,0.335,0.258,0.503,0.386c7.93-6.22,15.86-12.44,23.92-18.762
	c0.266,2.26,0.416,4.517,0.815,6.729c1.342,7.438,2.736,14.868,4.205,22.283c0.241,1.218,0.104,1.892-0.939,2.703
	c-11.178,8.689-22.435,17.285-33.375,26.267c-4.773,3.919-8.866,8.666-13.266,13.039c-0.338,0.337-0.655,0.692-1.109,1.173
	c-5.699-7.834-11.325-15.568-17.031-23.412c3.616-3.31,6.051-7.352,7.088-12.058c0.758-3.434,1.379-6.983,1.391-10.483
	c0.108-29.859,0.061-59.719,0.061-89.577C1465.681,207.132,1465.681,206.65,1465.681,205.863z"/>
<path fill="#071C2C" d="M1484.979,153.641c-11.699-14.96-23.328-29.831-35.077-44.857c7.615-4.849,15.392-9.801,23.533-14.985
	c12.045,14.15,24.066,28.271,36.284,42.621C1501.241,142.322,1493.1,147.988,1484.979,153.641z"/>
</svg>
