<?xml version="1.0" encoding="utf-8"?>
<!-- Generator: Adobe Illustrator 17.0.0, SVG Export Plug-In . SVG Version: 6.00 Build 0)  -->
<!DOCTYPE svg PUBLIC "-//W3C//DTD SVG 1.1//EN" "http://www.w3.org/Graphics/SVG/1.1/DTD/svg11.dtd">
<svg version="1.1" id="Layer_1" xmlns="http://www.w3.org/2000/svg" xmlns:xlink="http://www.w3.org/1999/xlink" x="0px" y="0px"
	 width="1017.493px" height="441px" viewBox="-5.375 198.445 1017.493 441" enable-background="new -5.375 198.445 1017.493 441"
	 xml:space="preserve">
<g>
	<g>
		<circle fill="#FEE050" cx="176.033" cy="452.086" r="164.006"/>
		<g>
			<path fill="#AF8400" d="M266.667,452.088c0,50.054-40.575,90.634-90.634,90.634c-50.053,0-90.634-40.58-90.634-90.634
				L266.667,452.088L266.667,452.088z"/>
		</g>
	</g>
	<g>
		<path fill="#C3C6C8" d="M443.98,225.797c-76.915,0-139.265,62.351-139.265,139.268c0,34.658,12.691,66.335,33.638,90.705
			c-6.294,18.126-17.914,33.76-33.032,44.979c9.593,3.278,19.875,5.084,30.575,5.084c18.322,0,35.415-5.225,49.902-14.245
			c17.709,8.158,37.405,12.741,58.183,12.741c76.92,0,139.271-62.349,139.271-139.263C583.251,288.148,520.9,225.797,443.98,225.797
			z"/>
	</g>
	<path fill="#071C2C" d="M91.204,418.004c0-10.648-8.631-19.282-19.284-19.282c-10.655,0-19.287,8.634-19.287,19.282
		c0,10.653,8.632,19.29,19.287,19.29C82.573,437.292,91.204,428.655,91.204,418.004z M266.667,440.06H85.397
		c-6.642,0-12.027,5.385-12.027,12.027c0,56.608,46.053,102.662,102.662,102.662s102.662-46.053,102.662-102.662
		C278.695,445.445,273.31,440.06,266.667,440.06z M176.033,530.696c-39.257,0-71.885-28.923-77.688-66.58h155.378
		C247.916,501.773,215.288,530.696,176.033,530.696z M280.151,398.719c-10.651,0-19.29,8.634-19.29,19.282
		c0,10.653,8.639,19.29,19.29,19.29c10.647,0,19.282-8.637,19.282-19.29C299.433,407.354,290.797,398.719,280.151,398.719z
		 M516.644,333.701H371.316c-6.642,0-12.027,5.385-12.027,12.027c0,6.642,5.385,12.027,12.027,12.027h145.328
		c6.642,0,12.027-5.385,12.027-12.027C528.671,339.086,523.288,333.701,516.644,333.701z M443.98,213.769
		c-69.612,0-128.384,47.262-145.939,111.384c-32.6-31.459-75.876-49.1-122.01-49.1C78.968,276.053,0,355.023,0,452.088
		s78.968,176.033,176.033,176.033c72.178,0,136.652-43.967,163.326-110.317c16.559-0.536,32.703-4.902,47.214-12.76
		c18.246,7.51,37.527,11.314,57.409,11.314c83.426,0,151.298-67.869,151.298-151.29C595.278,281.64,527.406,213.769,443.98,213.769z
		 M293.437,502.602c0.688,4.415,3.767,8.086,7.996,9.529c4.169,1.424,8.405,2.587,12.69,3.482
		c-24.577,53.473-78.266,88.453-138.089,88.453c-83.801-0.002-151.978-68.179-151.978-151.978s68.177-151.978,151.978-151.978
		c45.607,0,87.985,19.975,116.995,54.966c-0.216,3.303-0.338,6.633-0.338,9.989c0,33.684,11.282,66.386,31.906,92.876
		c-5.762,13.148-14.81,24.52-26.441,33.15C294.566,493.755,292.749,498.187,293.437,502.602z M443.98,492.302
		c-18.503,0-36.385-3.916-53.151-11.638c-3.676-1.693-7.954-1.424-11.389,0.714c-13.058,8.13-28.115,12.428-43.545,12.428
		c-1.836,0-3.669-0.061-5.494-0.183c8.422-9.947,14.968-21.399,19.313-33.907c1.405-4.048,0.552-8.536-2.24-11.785
		c-19.818-23.057-30.732-52.485-30.732-82.865c0-70.161,57.078-127.241,127.237-127.241c70.162,0,127.244,57.08,127.244,127.241
		C571.224,435.224,514.142,492.302,443.98,492.302z M486.807,409.08h-85.652c-6.642,0-12.027,5.385-12.027,12.027
		s5.385,12.027,12.027,12.027h85.652c6.642,0,12.027-5.385,12.027-12.027S493.449,409.08,486.807,409.08z M401.155,320.063h85.652
		c6.642,0,12.027-5.385,12.027-12.027s-5.385-12.027-12.027-12.027h-85.652c-6.642,0-12.027,5.385-12.027,12.027
		S394.513,320.063,401.155,320.063z M506.884,371.389H381.077c-6.642,0-12.027,5.385-12.027,12.027
		c0,6.642,5.385,12.027,12.027,12.027h125.807c6.642,0,12.027-5.385,12.027-12.027C518.912,376.774,513.527,371.389,506.884,371.389
		z"/>
</g>
<g>
	<path fill="#FFFFFF" d="M1006.581,640.639c-133.36,0-266.72,0-400.08,0c0-142.72,0-285.44,0-428.16c133.36,0,266.72,0,400.08,0
		C1006.581,355.199,1006.581,497.919,1006.581,640.639z M629.979,243.72c0,54.492,0,108.868,0,163.279c7.292,0,14.507,0,21.861,0
		c0-4.176,0-8.273,0-12.372c36.51,0,72.879,0,109.402,0c0,4.201,0,8.295,0,12.343c7.369,0,14.583,0,21.778,0
		c0-54.45,0-108.791,0-163.281c-26.007,0-51.934,0-78.059,0c2.36-7.363,4.659-14.534,6.999-21.832
		c-8.391-0.787-16.686-1.564-24.983-2.342c-0.117,0.423-0.206,0.728-0.286,1.037c-1.883,7.307-3.787,14.608-5.622,21.927
		c-0.26,1.037-0.733,1.263-1.725,1.262c-15.96-0.03-31.919-0.021-47.879-0.021C630.995,243.72,630.525,243.72,629.979,243.72z
		 M899.582,257.034c14.355,0,28.606,0,42.839,0c0-5.801,0-11.461,0-17.252c-14.332,0-28.584,0-42.932,0c0-6.553,0-12.975,0-19.402
		c-6.827,0-13.557,0-20.388,0c0,6.523,0,12.945,0,19.488c-16.677,0-33.254,0-49.842,0c0,5.779,0,11.436,0,17.232
		c16.65,0,33.222,0,49.812,0c0,6.799,0,13.457,0,20.251c-21.604,0-43.139,0-64.696,0c0,5.793,0,11.451,0,17.263
		c26.143,0,52.213,0,78.282,0c-13.058,7.913-26.5,14.956-40.348,21.174c-13.819,6.205-27.794,12.064-41.619,18.04
		c2.758,6.271,5.597,12.728,8.556,19.457c13.356-6.411,26.764-12.847,40.281-19.336c-1.527,7.653-3.048,15.28-4.602,23.072
		c30.516,0,60.928,0,91.401,0c0,0.628,0.043,1.108-0.007,1.579c-0.529,5.041-1.124,10.075-1.596,15.121
		c-0.472,5.054-3.315,8.045-7.985,9.527c-3.442,1.092-6.992,1.099-10.562,1.089c-14.519-0.041-29.039-0.018-43.558-0.015
		c-0.346,0-0.692,0.034-1.059,0.054c1.312,6.277,2.607,12.471,3.909,18.704c0.446,0,0.803,0.002,1.16,0
		c9.797-0.053,19.595-0.048,29.391-0.18c6.792-0.092,13.58-0.395,20.371-0.56c4.055-0.099,8.053-0.549,11.944-1.72
		c7.263-2.185,12.631-6.533,15.469-13.713c1.321-3.341,1.777-6.856,2.155-10.405c1.267-11.914,2.615-23.82,3.953-35.926
		c-30.572,0-60.97,0-91.477,0c1.066-5.059,2.092-9.924,3.129-14.842c35.196,0,70.262,0,105.349,0c0-5.773,0-11.461,0-17.299
		c-27.696,0-55.283,0-83.179,0c0.596-0.369,0.903-0.553,1.205-0.747c6.423-4.122,12.834-8.261,19.283-12.342
		c0.691-0.437,1.598-0.753,2.405-0.754c23.799-0.04,47.598-0.032,71.397-0.032c0.461,0,0.922,0,1.393,0c0-5.826,0-11.488,0-17.265
		c-16.536,0-32.988,0-49.773,0c13.739-11.145,26.889-22.466,39.737-34.313c-5.543-4.222-10.971-8.357-16.439-12.521
		c-2.518,2.444-4.974,4.84-7.442,7.224c-14.275,13.79-29.306,26.711-44.907,38.973c-0.484,0.38-1.21,0.63-1.826,0.635
		c-5.999,0.047-11.999,0.029-17.999,0.025c-0.383,0-0.767-0.04-1.184-0.064C899.582,270.523,899.582,263.894,899.582,257.034z
		 M777.63,485.097c-20.131,0-40.109,0-60.197,0c0-5.735,0-11.36,0-17.053c-7.086,0-14.061,0-21.144,0c0,5.706,0,11.329,0,17.097
		c-20.356,0-40.605,0-60.986,0c0,16.201,0,32.256,0,48.452c-7.343,0-14.555,0-21.757,0c0,6.077,0,12.011,0,18.072
		c26.005,0,51.924,0,77.842,0c0.094,0.112,0.188,0.225,0.283,0.337c-1.885,2.512-3.606,5.169-5.685,7.508
		c-5.875,6.611-13.305,11.055-21.282,14.629c-13.556,6.073-27.897,9.363-42.472,11.777c-3.377,0.559-6.766,1.044-10.436,1.608
		c4.123,6.784,8.866,13.036,11.904,20.504c7.773-2.125,15.438-4.066,23.009-6.323c12.654-3.772,24.968-8.428,36.45-15.06
		c6.082-3.513,11.841-7.492,16.592-12.712c2.484-2.73,4.638-5.759,6.927-8.634c0.067,0.106,0.282,0.436,0.486,0.772
		c2.335,3.852,5.162,7.311,8.408,10.426c6.359,6.101,13.741,10.679,21.689,14.368c16.531,7.674,34.108,11.632,51.985,14.506
		c0.762,0.122,1.034-0.181,1.327-0.803c2.475-5.233,4.982-10.451,7.484-15.672c0.716-1.493,1.447-2.979,2.103-4.327
		c-7.091-0.758-14.098-1.358-21.06-2.287c-10.044-1.34-19.873-3.649-29.303-7.445c-9.345-3.762-17.833-8.827-24.428-16.618
		c-1.708-2.018-3.182-4.234-4.763-6.359c0.087-0.098,0.173-0.195,0.26-0.293c26.177,0,52.354,0,78.556,0c0-6.04,0-11.974,0-18.044
		c-7.294,0-14.51,0-21.792,0C777.63,517.356,777.63,501.325,777.63,485.097z M863.602,504.606c0,5.825,0,11.488,0,17.198
		c45.827,0,91.594,0,137.36,0c0-5.763,0-11.452,0-17.236c-6.483,0-12.867,0-19.41,0c0-13.304,0-26.511,0-39.859
		c-20.125,0-40.091,0-60.138,0c1.307-6.53,2.583-12.908,3.882-19.4c22.92,0,45.777,0,68.663,0c0-5.819,0-11.506,0-17.191
		c-41.678,0-83.255,0-124.836,0c0,5.769,0,11.459,0,17.23c11.692,0,23.282,0,35,0c-1.042,6.51-2.068,12.919-3.11,19.432
		c-9.403,0-18.703,0-28.03,0c0,5.296,0,10.469,0,15.788c8.324,0,16.567,0,24.88,0c-1.569,8.098-3.109,16.039-4.659,24.037
		C883.289,504.606,873.501,504.606,863.602,504.606z M879.228,538.26c0,22.947,0,45.833,0,68.72c6.791,0,13.495,0,20.321,0
		c0-3.355,0-6.653,0-9.985c22.136,0,44.15,0,66.3,0c0,3.369,0,6.666,0,9.969c7.113,0,14.089,0,21.09,0c0-22.937,0-45.798,0-68.703
		C950.999,538.26,915.138,538.26,879.228,538.26z M799.422,439.761c-15.399,0-30.687,0-46.06,0c0-6.814,0-13.481,0-20.176
		c-6.815,0-13.544,0-20.376,0c0,6.768,0,13.432,0,20.144c-17.716,0-35.328,0-53.072,0c0-6.763,0-13.455,0-20.143
		c-7.099,0-14.068,0-21.128,0c0,6.77,0,13.435,0,20.205c-14.835,0-29.577,0-44.384,0c0,6.073,0,12.039,0,18.128
		c14.839,0,29.576,0,44.448,0c0,5.218,0,10.314,0,15.422c7.079,0,14.022,0,21.097,0c0-5.155,0-10.253,0-15.371
		c17.744,0,35.355,0,53.121,0c0,5.179,0,10.269,0,15.34c6.851,0,13.546,0,20.336,0c0-5.156,0-10.221,0-15.432
		c15.389,0,30.684,0,46.018,0C799.422,451.816,799.422,445.902,799.422,439.761z M829.901,503.946c0,0.578,0,0.932,0,1.286
		c0,21.915,0.034,43.83-0.045,65.744c-0.009,2.569-0.465,5.173-1.021,7.694c-0.762,3.454-2.548,6.421-5.202,8.85
		c4.188,5.757,8.317,11.432,12.5,17.183c0.333-0.353,0.566-0.614,0.814-0.861c3.229-3.21,6.233-6.694,9.736-9.57
		c8.029-6.592,16.291-12.901,24.495-19.278c0.765-0.595,0.866-1.09,0.689-1.984c-1.077-5.442-2.101-10.895-3.086-16.354
		c-0.293-1.623-0.402-3.28-0.598-4.939c-5.917,4.641-11.736,9.205-17.556,13.77c-0.123-0.094-0.246-0.189-0.369-0.283
		c0-26.923,0-53.845,0-80.76c-12.845,0-25.54,0-38.276,0c0,6.512,0,12.94,0,19.502C817.923,503.946,823.826,503.946,829.901,503.946
		z M844.065,465.619c5.96-4.149,11.935-8.307,18.157-12.639c-8.967-10.533-17.79-20.897-26.63-31.281
		c-5.975,3.805-11.683,7.44-17.272,10.998C826.945,443.725,835.48,454.639,844.065,465.619z"/>
	<path d="M629.979,243.72c0.546,0,1.017,0,1.487,0c15.96,0,31.919-0.009,47.879,0.021c0.992,0.002,1.465-0.225,1.725-1.262
		c1.834-7.319,3.739-14.62,5.622-21.927c0.079-0.308,0.169-0.614,0.286-1.037c8.297,0.778,16.591,1.555,24.983,2.342
		c-2.34,7.298-4.638,14.469-6.999,21.832c26.125,0,52.052,0,78.059,0c0,54.489,0,108.83,0,163.281c-7.195,0-14.409,0-21.778,0
		c0-4.048,0-8.142,0-12.343c-36.523,0-72.892,0-109.402,0c0,4.099,0,8.196,0,12.372c-7.354,0-14.569,0-21.861,0
		C629.979,352.588,629.979,298.212,629.979,243.72z M651.876,377.215c36.486,0,72.843,0,109.224,0c0-8.842,0-17.58,0-26.378
		c-36.444,0-72.806,0-109.224,0C651.876,359.659,651.876,368.403,651.876,377.215z M761.132,262.608c-36.49,0-72.846,0-109.21,0
		c0,8.853,0,17.616,0,26.339c36.462,0,72.822,0,109.21,0C761.132,280.145,761.132,271.438,761.132,262.608z M761.079,333.493
		c0-8.857,0-17.617,0-26.37c-36.464,0-72.826,0-109.187,0c0,8.823,0,17.563,0,26.37
		C688.292,333.493,724.622,333.493,761.079,333.493z"/>
	<path d="M899.582,257.034c0,6.86,0,13.488,0,20.219c0.417,0.023,0.801,0.063,1.184,0.064c6,0.004,12,0.021,17.999-0.025
		c0.616-0.005,1.343-0.254,1.826-0.635c15.601-12.262,30.632-25.183,44.907-38.973c2.468-2.384,4.925-4.78,7.442-7.224
		c5.468,4.165,10.896,8.3,16.439,12.521c-12.848,11.847-25.997,23.169-39.737,34.313c16.784,0,33.236,0,49.773,0
		c0,5.778,0,11.439,0,17.265c-0.471,0-0.932,0-1.393,0c-23.799,0-47.598-0.007-71.397,0.032c-0.807,0.001-1.714,0.317-2.405,0.754
		c-6.449,4.081-12.86,8.22-19.283,12.342c-0.302,0.194-0.609,0.378-1.205,0.747c27.896,0,55.483,0,83.179,0
		c0,5.838,0,11.526,0,17.299c-35.087,0-70.153,0-105.349,0c-1.037,4.919-2.062,9.783-3.129,14.842c30.507,0,60.906,0,91.477,0
		c-1.338,12.105-2.686,24.011-3.953,35.926c-0.378,3.55-0.834,7.064-2.155,10.405c-2.838,7.18-8.205,11.528-15.469,13.713
		c-3.891,1.171-7.889,1.621-11.944,1.72c-6.791,0.165-13.58,0.469-20.371,0.56c-9.796,0.132-19.594,0.127-29.391,0.18
		c-0.357,0.002-0.714,0-1.16,0c-1.303-6.233-2.597-12.427-3.909-18.704c0.367-0.019,0.713-0.054,1.059-0.054
		c14.519-0.003,29.039-0.026,43.558,0.015c3.57,0.01,7.12,0.003,10.562-1.089c4.67-1.482,7.513-4.473,7.985-9.527
		c0.471-5.046,1.067-10.08,1.596-15.121c0.049-0.471,0.007-0.951,0.007-1.579c-30.473,0-60.886,0-91.401,0
		c1.554-7.792,3.076-15.419,4.602-23.072c-13.518,6.489-26.925,12.925-40.281,19.336c-2.959-6.73-5.799-13.187-8.556-19.457
		c13.825-5.976,27.8-11.835,41.619-18.04c13.848-6.218,27.29-13.261,40.348-21.174c-26.07,0-52.139,0-78.282,0
		c0-5.812,0-11.47,0-17.263c21.558,0,43.092,0,64.696,0c0-6.793,0-13.452,0-20.251c-16.59,0-33.162,0-49.812,0
		c0-5.796,0-11.454,0-17.232c16.588,0,33.164,0,49.842,0c0-6.543,0-12.965,0-19.488c6.831,0,13.561,0,20.388,0
		c0,6.427,0,12.849,0,19.402c14.348,0,28.6,0,42.932,0c0,5.791,0,11.451,0,17.252C928.188,257.034,913.937,257.034,899.582,257.034z
		"/>
	<path d="M777.63,485.097c0,16.228,0,32.259,0,48.426c7.282,0,14.498,0,21.792,0c0,6.07,0,12.004,0,18.044
		c-26.201,0-52.378,0-78.556,0c-0.087,0.098-0.173,0.195-0.26,0.293c1.581,2.125,3.055,4.342,4.763,6.359
		c6.596,7.792,15.084,12.856,24.428,16.618c9.429,3.796,19.259,6.105,29.303,7.445c6.962,0.929,13.969,1.529,21.06,2.287
		c-0.656,1.348-1.387,2.834-2.103,4.327c-2.502,5.22-5.01,10.438-7.484,15.672c-0.294,0.622-0.566,0.925-1.327,0.803
		c-17.877-2.875-35.454-6.832-51.985-14.506c-7.947-3.689-15.33-8.267-21.689-14.368c-3.246-3.115-6.073-6.573-8.408-10.426
		c-0.204-0.337-0.42-0.667-0.486-0.772c-2.288,2.875-4.443,5.904-6.927,8.634c-4.75,5.22-10.51,9.199-16.592,12.712
		c-11.481,6.632-23.795,11.287-36.45,15.06c-7.571,2.257-15.235,4.199-23.009,6.323c-3.038-7.468-7.781-13.72-11.904-20.504
		c3.67-0.563,7.059-1.048,10.436-1.608c14.575-2.415,28.916-5.705,42.472-11.777c7.977-3.573,15.407-8.018,21.282-14.629
		c2.079-2.339,3.8-4.996,5.685-7.508c-0.094-0.112-0.188-0.225-0.283-0.337c-25.919,0-51.838,0-77.842,0c0-6.061,0-11.996,0-18.072
		c7.202,0,14.414,0,21.757,0c0-16.195,0-32.251,0-48.452c20.38,0,40.63,0,60.986,0c0-5.768,0-11.391,0-17.097
		c7.082,0,14.058,0,21.144,0c0,5.693,0,11.318,0,17.053C737.521,485.097,757.499,485.097,777.63,485.097z M655.735,533.559
		c3.426,0,6.736,0,10.046,0c9.236,0,18.472-0.014,27.708,0.021c0.968,0.004,1.351-0.238,1.339-1.246
		c-0.015-1.275,0.152-2.551,0.189-3.828c0.171-5.91,0.347-11.82,0.473-17.731c0.059-2.747,0.01-5.497,0.01-8.294
		c-13.326,0-26.529,0-39.765,0C655.735,512.835,655.735,523.103,655.735,533.559z M756.469,502.485c-13.041,0-25.965,0-39.017,0
		c-0.322,10.363-0.642,20.645-0.963,30.979c13.556,0,26.755,0,39.98,0C756.469,523.102,756.469,512.835,756.469,502.485z"/>
	<path d="M863.602,504.606c9.899,0,19.687,0,29.602,0c1.55-7.998,3.089-15.94,4.659-24.037c-8.313,0-16.557,0-24.88,0
		c0-5.32,0-10.492,0-15.788c9.328,0,18.628,0,28.03,0c1.043-6.513,2.068-12.922,3.11-19.432c-11.717,0-23.307,0-35,0
		c0-5.771,0-11.461,0-17.23c41.581,0,83.157,0,124.836,0c0,5.685,0,11.372,0,17.191c-22.886,0-45.743,0-68.663,0
		c-1.299,6.492-2.575,12.87-3.882,19.4c20.046,0,40.012,0,60.138,0c0,13.348,0,26.556,0,39.859c6.543,0,12.927,0,19.41,0
		c0,5.784,0,11.472,0,17.236c-45.766,0-91.532,0-137.36,0C863.602,516.094,863.602,510.432,863.602,504.606z M913.606,504.526
		c15.917,0,31.682,0,47.508,0c0-8.005,0-15.936,0-23.937c-14.314,0-28.561,0-42.877,0
		C916.694,488.569,915.158,496.509,913.606,504.526z"/>
	<path d="M879.228,538.26c35.91,0,71.771,0,107.712,0c0,22.905,0,45.766,0,68.703c-7.001,0-13.977,0-21.09,0
		c0-3.302,0-6.599,0-9.969c-22.15,0-44.164,0-66.3,0c0,3.332,0,6.63,0,9.985c-6.826,0-13.53,0-20.321,0
		C879.228,584.093,879.228,561.207,879.228,538.26z M899.605,581.078c22.102,0,44.112,0,66.152,0c0-8.54,0-16.999,0-25.528
		c-22.072,0-44.08,0-66.152,0C899.605,564.068,899.605,572.527,899.605,581.078z"/>
	<path d="M799.422,439.761c0,6.141,0,12.055,0,18.116c-15.333,0-30.629,0-46.018,0c0,5.211,0,10.277,0,15.432
		c-6.789,0-13.485,0-20.336,0c0-5.071,0-10.161,0-15.34c-17.766,0-35.377,0-53.121,0c0,5.118,0,10.216,0,15.371
		c-7.075,0-14.018,0-21.097,0c0-5.108,0-10.204,0-15.422c-14.872,0-29.61,0-44.448,0c0-6.09,0-12.056,0-18.128
		c14.807,0,29.549,0,44.384,0c0-6.77,0-13.435,0-20.205c7.06,0,14.029,0,21.128,0c0,6.688,0,13.381,0,20.143
		c17.743,0,35.356,0,53.072,0c0-6.711,0-13.375,0-20.144c6.832,0,13.561,0,20.376,0c0,6.695,0,13.362,0,20.176
		C768.735,439.761,784.023,439.761,799.422,439.761z"/>
	<path d="M829.901,503.946c-6.075,0-11.978,0-17.919,0c0-6.562,0-12.99,0-19.502c12.736,0,25.431,0,38.276,0
		c0,26.915,0,53.837,0,80.76c0.123,0.094,0.246,0.189,0.369,0.283c5.82-4.565,11.64-9.13,17.556-13.77
		c0.195,1.659,0.305,3.315,0.598,4.939c0.985,5.459,2.008,10.912,3.086,16.354c0.177,0.894,0.076,1.389-0.689,1.984
		c-8.204,6.377-16.466,12.686-24.495,19.278c-3.503,2.876-6.507,6.36-9.736,9.57c-0.248,0.247-0.481,0.508-0.814,0.861
		c-4.183-5.75-8.312-11.426-12.5-17.183c2.654-2.429,4.441-5.396,5.202-8.85c0.556-2.52,1.012-5.125,1.021-7.694
		c0.079-21.915,0.045-43.83,0.045-65.744C829.901,504.878,829.901,504.524,829.901,503.946z"/>
	<path d="M844.065,465.619c-8.586-10.98-17.121-21.894-25.744-32.922c5.589-3.559,11.297-7.193,17.272-10.998
		c8.84,10.385,17.663,20.749,26.63,31.281C856,457.311,850.025,461.47,844.065,465.619z"/>
	<path fill="#FFFFFF" d="M651.876,377.215c0-8.812,0-17.556,0-26.378c36.418,0,72.78,0,109.224,0c0,8.797,0,17.536,0,26.378
		C724.719,377.215,688.362,377.215,651.876,377.215z"/>
	<path fill="#FFFFFF" d="M761.132,262.608c0,8.83,0,17.538,0,26.339c-36.387,0-72.748,0-109.21,0c0-8.722,0-17.486,0-26.339
		C688.286,262.608,724.642,262.608,761.132,262.608z"/>
	<path fill="#FFFFFF" d="M761.079,333.493c-36.458,0-72.787,0-109.187,0c0-8.807,0-17.546,0-26.37c36.362,0,72.723,0,109.187,0
		C761.079,315.876,761.079,324.636,761.079,333.493z"/>
	<path fill="#FFFFFF" d="M655.735,533.559c0-10.456,0-20.725,0-31.077c13.237,0,26.439,0,39.765,0c0,2.797,0.049,5.546-0.01,8.294
		c-0.127,5.911-0.302,11.821-0.473,17.731c-0.037,1.277-0.204,2.553-0.189,3.828c0.012,1.008-0.372,1.25-1.339,1.246
		c-9.236-0.035-18.472-0.021-27.708-0.021C662.471,533.559,659.161,533.559,655.735,533.559z"/>
	<path fill="#FFFFFF" d="M756.469,502.485c0,10.351,0,20.617,0,30.979c-13.225,0-26.424,0-39.98,0
		c0.321-10.334,0.641-20.616,0.963-30.979C730.504,502.485,743.428,502.485,756.469,502.485z"/>
	<path fill="#FFFFFF" d="M913.606,504.526c1.551-8.018,3.087-15.957,4.631-23.937c14.316,0,28.563,0,42.877,0
		c0,8.001,0,15.933,0,23.937C945.289,504.526,929.524,504.526,913.606,504.526z"/>
	<path fill="#FFFFFF" d="M899.605,581.078c0-8.551,0-17.01,0-25.528c22.072,0,44.08,0,66.152,0c0,8.529,0,16.987,0,25.528
		C943.716,581.078,921.707,581.078,899.605,581.078z"/>
</g>
</svg>
